<svg xmlns="http://www.w3.org/2000/svg" width="29" height="29" fill="none">
  <path
    d="M9 3.915c-1.68 0-3 .89-3 2 0 1.111 1.32 2 3 2s3-.889 3-2c0-1.11-1.32-2-3-2zm0 2.89c-1.02 0-1.8-.5-1.8-.89 0-.444.78-.889 1.8-.889s1.8.5 1.8.89c0 .444-.78.888-1.8.888z"
    fill="#999"></path>
  <path
    d="M25.059 10.588h-7.647V5.882C17.412 2.647 13.529 0 8.706 0 3.882 0 0 2.647 0 5.882v12c0 2.647 2.647 5 6.412 5.706v4.824c0 .353.235.588.588.588h18.059A2.913 2.913 0 0028 26.059v-12.53a2.913 2.913 0 00-2.941-2.94zM8.706 1.176c4.176 0 7.53 2.118 7.53 4.706 0 2.589-3.354 4.706-7.53 4.706-4.177 0-7.53-2.117-7.53-4.706 0-2.588 3.353-4.706 7.53-4.706zm7.53 7.648v1.764h-2.354c.941-.47 1.765-1.059 2.353-1.764zm-9.824 7.058v6.47c-3.06-.646-5.236-2.41-5.236-4.47V8.824c1.53 1.764 4.295 2.94 7.53 2.94h16.353c1 0 1.764.765 1.764 1.765 0 1-.764 1.765-1.764 1.765H7c-.353 0-.588.235-.588.588zM26.942 26h-.119c0 1-.764 1.765-1.764 1.765h-.706v-2.706c0-.353-.235-.588-.588-.588s-.588.235-.588.588v2.706H21v-2.706c0-.353-.235-.588-.588-.588s-.588.235-.588.588v2.706h-2.177v-2.706c0-.353-.235-.588-.588-.588s-.588.235-.588.588v2.706h-2.177v-2.706c0-.353-.235-.588-.588-.588s-.588.235-.588.588v2.706H10.94v-2.706c0-.353-.235-.588-.588-.588s-.588.235-.588.588v2.706h-2.06v-4.53c0-.058.06-.117.06-.117 0-.118 0-.177-.06-.294V16.47h17.471c.648 0 1.295-.236 1.765-.589V26z"
    fill="#999"></path>
</svg>
