<svg xmlns="http://www.w3.org/2000/svg"><symbol id="icon-arrow-bottom"><path d="M1 1l7.197 6L15 1" stroke="#000" stroke-linecap="square"/></symbol><symbol id="icon-arrow-down" viewBox="0 0 8 9"><path d="M2 3.5l2 2M4 5.5l2-2" stroke="#1E1E1E" stroke-linecap="round"/></symbol><symbol id="icon-arrow-left" viewBox="0 0 32 33"><path d="M12.76 8.407L4.667 16.5l8.093 8.093M27.334 16.5H4.894" stroke="#1E1E1E" stroke-width="2" stroke-miterlimit="10" stroke-linecap="round" stroke-linejoin="round"/></symbol><symbol id="icon-arrow-right-2" viewBox="0 0 32 32"><path d="M5.33 16h21.334M26.664 16l-8-8M26.664 16l-8 8" stroke="#fff" stroke-width="2" stroke-linecap="round"/></symbol><symbol id="icon-arrow-right" viewBox="0 0 36 15"><path d="M35.707 8.207a1 1 0 0 0 0-1.414L29.343.429a1 1 0 1 0-1.414 1.414L33.586 7.5l-5.657 5.657a1 1 0 0 0 1.414 1.414l6.364-6.364zM0 7.5v1h35v-2H0v1z" fill="#000"/></symbol><symbol id="icon-bag-2" viewBox="0 0 24 24"><path d="M21 5.98c-3.33-.33-6.68-.5-10.02-.5-1.98 0-3.96.1-5.94.3L3 5.98M8.5 4.97l.22-1.31C8.88 2.71 9 2 10.69 2h2.62c1.69 0 1.82.75 1.97 1.67l.22 1.3M18.85 9.14l-.65 10.07C18.09 20.78 18 22 15.21 22H8.79C6 22 5.91 20.78 5.8 19.21L5.15 9.14M10.33 16.5h3.33M9.5 12.5h5" stroke="#1E1E1E" stroke-width="1.5" stroke-linecap="round" stroke-linejoin="round"/></symbol><symbol id="icon-bag" viewBox="0 0 24 24"><path d="M7.5 7.67V6.7c0-2.25 1.81-4.46 4.06-4.67a4.5 4.5 0 0 1 4.94 4.48v1.38M9 22h6c4.02 0 4.74-1.61 4.95-3.57l.75-6C20.97 9.99 20.27 8 16 8H8c-4.27 0-4.97 1.99-4.7 4.43l.75 6C4.26 20.39 4.98 22 9 22z" stroke="#1E1E1E" stroke-width="1.5" stroke-miterlimit="10" stroke-linecap="round" stroke-linejoin="round"/><path d="M15.495 12h.01M8.495 12h.008" stroke="#1E1E1E" stroke-width="2" stroke-linecap="round" stroke-linejoin="round"/></symbol><symbol id="icon-check" viewBox="0 0 24 24"><path d="M12 2c5.514 0 10 4.486 10 10s-4.486 10-10 10S2 17.514 2 12 6.486 2 12 2zm0-2C5.373 0 0 5.373 0 12s5.373 12 12 12 12-5.373 12-12S18.627 0 12 0zm6.25 8.891l-1.421-1.409-6.105 6.218-3.078-2.937-1.396 1.436 4.5 4.319 7.5-7.627z"/></symbol><symbol id="icon-close" viewBox="0 0 32 33"><path d="M6.667 7.167l18.665 18.665M6.666 25.832L25.33 7.167" stroke="#1E1E1E" stroke-width="2" stroke-linecap="round" stroke-linejoin="round"/></symbol><symbol id="icon-contact"><path fill-rule="evenodd" clip-rule="evenodd" d="M3.782.772a2.5 2.5 0 13.762.17 NaN NaNlNaN NaNa2.5 2.5 0 1-.459 NaN NaNlNaN NaNcNaN NaN NaN NaN NaN NaN NaN NaN NaN NaN NaN NaN NaN NaN NaN NaN NaN NaN NaN NaN NaN NaN NaN NaNlNaN NaNa2.5 2.5 0 13.614 0 NaN NaNlNaN NaNa2.5 2.5 0 10 3.455 NaN NaNlNaN NaNcNaN NaN NaN NaN NaN NaN NaN NaN NaN NaN NaN NaN NaN NaN NaN NaN NaN NaNa2.403 2.403 0 1.572-2.393 NaN NaNlNaN NaNzm2.98.793a1.5 1.5 0 0-2.257-.102 NaNL-.75 NaNa1.403 1.403 0 0-.34 1.398 NaNC.197 NaN 2.793 NaN 7.081 NaNc4.217 NaN 10.968 NaN 13.671 NaN.513 NaN 1.085 NaN 1.476 NaNl2.613 NaNa1.5 1.5 0 0-2.073 NaN NaNlNaN NaNa1.5 1.5 0 0-2.168 NaN NaNlNaN NaNcNaN NaN NaN NaN NaN NaN NaN NaN NaN NaN NaN NaNa15.538 15.538 0 17.75 13.04 NaN NaNcNaN NaN NaN NaN NaN NaNlNaN NaNa1.5 1.5 0 .275-2.136 NaN NaNlNaN NaNzm10.073 2.183a.5.5 0 1.5-.5 NaN NaNvNaNhNaNlNaN NaNa10.596 10.596 0 11.909.277 NaN NaNcNaN NaN NaN NaN NaN NaN NaN NaN NaN NaN NaN NaNa11.962 11.962 0 1.263 1.984 NaN NaNcNaN NaN NaN NaN NaN NaNvNaNlNaN NaNhNaNa.5.5 0 1-1 NaN NaNvNaNlNaN NaNa10.98 10.98 0 0-.24 NaN NaNcNaN NaN NaN NaN NaN NaN NaN NaN NaN NaN NaN NaNa9.595 9.595 0 0-1.717 NaN NaNlNaN NaNhNaNmNaN NaNa.5.5 0 .5.5 NaN NaNlNaN NaNz" fill="#999"/></symbol><symbol id="icon-copy" viewBox="0 0 16 16"><path d="M10.666 8.6v2.8c0 2.333-.933 3.267-3.266 3.267H4.6c-2.334 0-3.267-.934-3.267-3.267V8.6c0-2.333.933-3.267 3.267-3.267h2.8c2.333 0 3.266.934 3.266 3.267z" stroke="#8B8B8B" stroke-width="1.2" stroke-linecap="round" stroke-linejoin="round"/><path d="M14.666 4.6v2.8c0 2.333-.933 3.267-3.266 3.267h-.734V8.6c0-2.333-.933-3.267-3.266-3.267H5.333V4.6c0-2.333.933-3.267 3.267-3.267h2.8c2.333 0 3.266.934 3.266 3.267z" stroke="#8B8B8B" stroke-width="1.2" stroke-linecap="round" stroke-linejoin="round"/></symbol><symbol id="icon-delivery" viewBox="0 0 24 24"><path d="M3 18H1a1 1 0 0 1-1-1V4a1 1 0 0 1 1-1h13a1 1 0 0 1 1 1v2h4.667c1.117 0 1.6.576 1.936 1.107.594.94 1.536 2.432 2.109 3.378.188.312.288.67.288 1.035V16c0 1.089-.743 2-2 2h-1a3.001 3.001 0 0 1-6 0H9a3.001 3.001 0 0 1-6 0zm3-1.2a1.201 1.201 0 0 1 0 2.4 1.201 1.201 0 0 1 0-2.4zm12 0a1.201 1.201 0 0 1 0 2.4 1.201 1.201 0 0 1 0-2.4zM15 14H2v2h1.765A2.99 2.99 0 0 1 6 15a2.99 2.99 0 0 1 2.235 1h7.53A2.99 2.99 0 0 1 18 15a2.99 2.99 0 0 1 2.235 1H22v-4.575l-1.711-2.929A1 1 0 0 0 19.426 8H15v6zm-2-9H2v7h11V5zm3 4v3h5l-1.427-2.496A.999.999 0 0 0 18.705 9H16z"/></symbol><symbol id="icon-deminsions"><path d="M9 3.915c-1.68 0-3 .89-3 2 0 1.111 1.32 2 3 2s3-.889 3-2c0-1.11-1.32-2-3-2zm0 2.89c-1.02 0-1.8-.5-1.8-.89 0-.444.78-.889 1.8-.889s1.8.5 1.8.89c0 .444-.78.888-1.8.888z" fill="#999"/><path d="M25.059 10.588h-7.647V5.882C17.412 2.647 13.529 0 8.706 0 3.882 0 0 2.647 0 5.882v12c0 2.647 2.647 5 6.412 5.706v4.824c0 .353.235.588.588.588h18.059a2.913 2.913 0 28 26.059 NaN NaNvNaNa2.913 2.913 0 0-2.941 NaN NaNzM8.706 1.176c4.176 0 7.53 2.118 7.53 4.706 0 2.589-3.354 4.706-7.53 4.706-4.177 0-7.53-2.117-7.53-4.706 0-2.588 3.353-4.706 7.53-4.706zm7.53 7.648v1.764h-2.354c.941-.47 1.765-1.059 2.353-1.764zm-9.824 7.058v6.47c-3.06-.646-5.236-2.41-5.236-4.47V8.824c1.53 1.764 4.295 2.94 7.53 2.94h16.353c1 0 1.764.765 1.764 1.765 0 1-.764 1.765-1.764 1.765H7c-.353 0-.588.235-.588.588zM26.942 26h-.119c0 1-.764 1.765-1.764 1.765h-.706v-2.706c0-.353-.235-.588-.588-.588s-.588.235-.588.588v2.706H21v-2.706c0-.353-.235-.588-.588-.588s-.588.235-.588.588v2.706h-2.177v-2.706c0-.353-.235-.588-.588-.588s-.588.235-.588.588v2.706h-2.177v-2.706c0-.353-.235-.588-.588-.588s-.588.235-.588.588v2.706H10.94v-2.706c0-.353-.235-.588-.588-.588s-.588.235-.588.588v2.706h-2.06v-4.53c0-.058.06-.117.06-.117 0-.118 0-.177-.06-.294V16.47h17.471c.648 0 1.295-.236 1.765-.589V26z" fill="#999"/></symbol><symbol id="icon-eye" viewBox="0 0 12 12"><path d="M7.79 6c0 .99-.8 1.79-1.79 1.79S4.21 6.99 4.21 6 5.01 4.21 6 4.21s1.79.8 1.79 1.79z" stroke="#1E1E1E" stroke-linecap="round" stroke-linejoin="round"/><path d="M6 10.135c1.765 0 3.41-1.04 4.555-2.84.45-.705.45-1.89 0-2.595C9.41 2.9 7.765 1.86 6 1.86c-1.765 0-3.41 1.04-4.555 2.84-.45.705-.45 1.89 0 2.595 1.145 1.8 2.79 2.84 4.555 2.84z" stroke="#1E1E1E" stroke-linecap="round" stroke-linejoin="round"/></symbol><symbol id="icon-faq"><path d="M12 0c6.623 0 12 5.377 12 12s-5.377 12-12 12S0 18.623 0 12 5.377 0 12 0zm0 1c6.071 0 11 4.929 11 11s-4.929 11-11 11S1 18.071 1 12 5.929 1 12 1zm.053 17a.844.844 0 1 0 0-1.689.844.844 0 0 0 0 1.689zm.468-2.822h-.998c-.035-1.162.182-2.054.939-2.943.491-.57 1.607-1.479 1.945-2.058C15.129 8.948 14.484 7 12.136 7c-1.439 0-2.615.877-2.928 2.507L8.19 9.405C8.47 7.169 10.148 6 12.112 6c1.964 0 3.615 1.25 3.615 3.22 0 1.806-1.826 2.782-2.638 3.868-.422.563-.555 1.377-.568 2.09z"/></symbol><symbol id="icon-filter" viewBox="0 0 24 24"><path d="M22 6.5h-6M6 6.5H2M10 10a3.5 3.5 0 1 0 0-7 3.5 3.5 0 0 0 0 7zM22 17.5h-4M8 17.5H2M14 21a3.5 3.5 0 1 0 0-7 3.5 3.5 0 0 0 0 7z" stroke="#1E1E1E" stroke-width="1.5" stroke-miterlimit="10" stroke-linecap="round" stroke-linejoin="round"/></symbol><symbol id="icon-gift" viewBox="0 0 16 16"><path d="M2 6a.667.667 0 0 1 .667-.667h10.666A.667.667 0 0 1 14 6v1.333a.666.666 0 0 1-.667.667H2.667A.667.667 0 0 1 2 7.333V6zM8 5.333V14" stroke="#1E1E1E" stroke-width="1.2" stroke-linecap="round" stroke-linejoin="round"/><path d="M12.667 8v4a2 2 0 0 1-2 2H5.333a2 2 0 0 1-2-2V8M5 5.333A1.667 1.667 0 0 1 5 2c.643-.011 1.273.3 1.808.895.536.595.95 1.444 1.192 2.438.241-.994.656-1.843 1.191-2.438C9.727 2.301 10.357 1.99 11 2a1.667 1.667 0 0 1 0 3.333" stroke="#1E1E1E" stroke-width="1.2" stroke-linecap="round" stroke-linejoin="round"/></symbol><symbol id="icon-heart-2" viewBox="0 0 24 24"><path d="M12.62 20.81c-.34.12-.9.12-1.24 0C8.48 19.82 2 15.69 2 8.69 2 5.6 4.49 3.1 7.56 3.1c1.82 0 3.43.88 4.44 2.24a5.53 5.53 0 0 1 4.44-2.24C19.51 3.1 22 5.6 22 8.69c0 7-6.48 11.13-9.38 12.12z"/></symbol><symbol id="icon-heart" viewBox="0 0 24 24"><path d="M12.62 20.81c-.34.12-.9.12-1.24 0C8.48 19.82 2 15.69 2 8.69 2 5.6 4.49 3.1 7.56 3.1c1.82 0 3.43.88 4.44 2.24a5.53 5.53 0 0 1 4.44-2.24C19.51 3.1 22 5.6 22 8.69c0 7-6.48 11.13-9.38 12.12z" stroke="#1E1E1E" stroke-width="1.5" stroke-linecap="round" stroke-linejoin="round"/></symbol><symbol id="icon-inst" viewBox="0 0 28 28"><path d="M15.37.667c1.5.004 2.262.012 2.92.03l.258.01c.299.01.593.024.95.04 1.418.066 2.386.29 3.235.62a6.5 6.5 0 0 1 2.363 1.537 6.533 6.533 0 0 1 1.537 2.362c.33.85.554 1.818.62 3.238.016.354.03.65.04.95l.008.258c.02.656.028 1.417.031 2.917l.001.995v1.746c.004.973-.007 1.946-.03 2.918l-.008.259c-.011.3-.024.594-.04.949-.067 1.42-.294 2.387-.622 3.237a6.533 6.533 0 0 1-1.537 2.363 6.534 6.534 0 0 1-2.363 1.537c-.849.33-1.817.553-3.236.62l-.949.04-.259.008c-.657.019-1.418.028-2.918.03l-.995.002h-1.745a104.02 104.02 0 0 1-2.919-.03l-.259-.009a85.905 85.905 0 0 1-.949-.04c-1.419-.068-2.387-.292-3.237-.62a6.533 6.533 0 0 1-2.362-1.538 6.533 6.533 0 0 1-1.538-2.363c-.33-.85-.554-1.817-.62-3.237l-.04-.95-.007-.258c-.025-.972-.036-1.945-.033-2.918v-2.74c-.004-.973.006-1.946.029-2.918l.01-.259c.01-.3.023-.595.04-.95.066-1.42.29-2.386.62-3.237a6.533 6.533 0 0 1 1.54-2.362 6.533 6.533 0 0 1 2.36-1.537c.851-.33 1.818-.554 3.238-.62.355-.016.65-.03.95-.04l.258-.008c.972-.024 1.945-.034 2.917-.031l2.742-.001zM14 7.333a6.667 6.667 0 1 0 0 13.333 6.667 6.667 0 0 0 0-13.333zM14 10a3.999 3.999 0 0 1 1.532 7.695 3.998 3.998 0 0 1-4.359-6.524A4 4 0 0 1 14.001 10m7-4.667a1.667 1.667 0 1 0 0 3.333 1.667 1.667 0 0 0 0-3.333z" fill="#1E1E1E"/></symbol><symbol id="icon-ittsi" viewBox="0 0 23.82 23.82"><path class="cls-1" d="M23.82 11.91c-8.45 1.91-10 3.46-11.91 11.91C10 15.37 8.45 13.82 0 11.91 8.45 10 10 8.45 11.91 0c1.91 8.45 3.46 10 11.91 11.91z"/></symbol><symbol id="icon-minus" viewBox="0 0 28 4"><path d="M2 2h24"/></symbol><symbol id="icon-payment"><path d="M22 3a2 2 0 0 1 2 2v14a2 2 0 0 1-2 2H2a2 2 0 0 1-2-2V5a2 2 0 0 1 2-2h20zm1 8H1v8a1 1 0 0 0 1 1h20a1 1 0 0 0 1-1v-8zM8 16v1H3v-1h5zm13-2v1h-3v-1h3zm-10 0v1H3v-1h8zM1 8v2h22V8H1zm22-1V5a1 1 0 0 0-1-1H2a1 1 0 0 0-1 1v2h22z"/></symbol><symbol id="icon-return" viewBox="0 0 24 24"><path d="M12 2c5.514 0 10 4.486 10 10s-4.486 10-10 10S2 17.514 2 12 6.486 2 12 2zm0-2C5.373 0 0 5.373 0 12s5.373 12 12 12 12-5.373 12-12S18.627 0 12 0zm3.222 18.917c5.666-5.905-.629-10.828-5.011-7.706L12 13H6V7l1.832 1.832c7.846-6.07 16.212 4.479 7.39 10.085z"/></symbol><symbol id="icon-search" viewBox="0 0 24 24"><path d="M17.642 10.32A7.32 7.32 0 1 1 3 10.32a7.32 7.32 0 0 1 14.642 0z" stroke="#1E1E1E" stroke-width="1.5"/><path d="M15.797 15.797L21.1 21.1" stroke="#1E1E1E" stroke-width="1.5" stroke-linecap="round"/></symbol><symbol id="icon-send" viewBox="0 0 18 21"><title>Path 3</title><path d="M2.45 8.463L0 0l17.33 10.31L0 20.875l2.45-8.301 7.253-2.266z" fill="#FFF" fill-rule="evenodd"/></symbol><symbol id="icon-shop" viewBox="0 0 24 24"><path d="M9.939 0L9 4.971v1.098C9 7.135 8.067 8 7 8s-2-.865-2-1.932V4.971L7.996 0h1.943zM6.887 0L4 4.971v1.098C4 7.135 3.067 8 2 8s-2-.865-2-1.932V4.971L4.874 0h2.013zM24 6.068C24 7.135 23.067 8 22 8s-2-.933-2-2V4.902L17.113 0h2.014L24 4.971v1.097zM14 4.9v1.098C14 7.064 13.067 8 12 8s-2-.933-2-2V4.902L11.047 0h1.905L14 4.9zM16.004 0l2.993 5.002V6.1C18.998 7.167 18.067 8 17 8s-2-.933-2-2V4.902L14.061 0h1.943zM1 10v14h10v-2H3V12h18v12h2V10H1zm18 4h-6v10h6V14z"/></symbol><symbol id="icon-sorting" viewBox="0 0 24 24"><path d="M3 7h18M6 12h12M10 17h4" stroke="#1E1E1E" stroke-width="1.5" stroke-linecap="round"/></symbol><symbol id="icon-stars" viewBox="0 0 14 14"><path d="M13.99 5.606c.07-.367-.21-.807-.56-.807l-3.987-.587L7.624.397a.56.56 0 0 0-.28-.294c-.35-.22-.77-.073-.979.294L4.616 4.212.63 4.799c-.21 0-.35.073-.42.22a.733.733 0 0 0 0 1.027l2.868 2.935-.7 4.182c0 .147 0 .293.07.44.21.367.63.514.98.294l3.567-1.981 3.567 1.98c.07.074.21.074.35.074h.14c.35-.073.629-.44.559-.88l-.7-4.182 2.868-2.935c.14-.074.21-.22.21-.367z"/></symbol><symbol id="icon-tg" viewBox="0 0 28 28"><path d="M14 .667C6.64.667.667 6.64.667 14S6.64 27.333 14 27.333 27.333 21.36 27.333 14 21.36.667 14 .667zm6.187 9.066c-.2 2.107-1.067 7.227-1.507 9.587-.187 1-.56 1.333-.907 1.373-.773.067-1.36-.507-2.106-1-1.174-.773-1.84-1.253-2.974-2-1.32-.867-.466-1.347.294-2.12.2-.2 3.613-3.306 3.68-3.587a.268.268 0 0 0-.067-.24c-.08-.066-.187-.04-.28-.026-.12.026-1.987 1.266-5.627 3.72-.533.36-1.013.546-1.44.533-.48-.013-1.386-.267-2.066-.493-.84-.267-1.494-.414-1.44-.88.026-.24.36-.48.986-.733 3.894-1.694 6.48-2.814 7.774-3.347 3.706-1.547 4.466-1.813 4.973-1.813.107 0 .36.026.52.16a.53.53 0 0 1 .187.36c-.014.08.013.32 0 .506z" fill="#1E1E1E"/></symbol><symbol id="icon-tick" viewBox="0 0 30 23"><path d="M1.5 12.636l8.182 8.182L28.5 2"/></symbol><symbol id="icon-user" viewBox="0 0 24 24"><path d="M12 12a5 5 0 1 0 0-10 5 5 0 0 0 0 10zM20.59 22c0-3.87-3.85-7-8.59-7s-8.59 3.13-8.59 7" stroke="#1E1E1E" stroke-width="1.5" stroke-linecap="round" stroke-linejoin="round"/></symbol><symbol id="icon-vk" viewBox="0 0 39 21"><path fill-rule="evenodd" clip-rule="evenodd" d="M38.793 18.965a2.504 2.504 0 0 0-.132-.24c-.677-1.15-1.97-2.561-3.878-4.235l-.04-.038-.02-.019-.021-.02h-.02c-.867-.779-1.416-1.303-1.645-1.57-.42-.512-.515-1.03-.285-1.553.162-.396.772-1.233 1.827-2.51.556-.678.995-1.22 1.32-1.63 2.342-2.938 3.358-4.816 3.046-5.634l-.12-.19c-.082-.116-.292-.22-.63-.317-.339-.096-.772-.112-1.3-.048L31.047 1c-.095-.031-.23-.028-.406.01l-.264.058-.102.048-.08.057a.882.882 0 0 0-.224.201c-.081.096-.149.208-.203.336a30.54 30.54 0 0 1-2.173 4.312c-.5.792-.96 1.478-1.38 2.06-.42.58-.772 1.009-1.056 1.284a7.235 7.235 0 0 1-.772.66c-.23.167-.406.237-.528.211a15.54 15.54 0 0 1-.345-.076 1.306 1.306 0 0 1-.457-.47 2.015 2.015 0 0 1-.233-.747 7.81 7.81 0 0 1-.072-.776c-.006-.217-.003-.524.01-.92.015-.397.021-.665.021-.805 0-.486.01-1.013.03-1.581.02-.569.037-1.02.051-1.351.014-.332.02-.684.02-1.054s-.024-.661-.07-.872A2.867 2.867 0 0 0 22.6.97a1.053 1.053 0 0 0-.417-.46 2.427 2.427 0 0 0-.68-.258c-.718-.153-1.631-.236-2.741-.25-2.518-.025-4.136.129-4.854.46-.284.141-.541.333-.771.576-.244.28-.278.434-.102.46.813.114 1.388.389 1.726.823l.122.23c.095.167.19.46.284.882.095.422.156.888.183 1.399.068.932.068 1.731 0 2.395a27.016 27.016 0 0 1-.193 1.553c-.06.37-.152.67-.274.9-.122.23-.203.37-.244.422a.342.342 0 0 1-.101.095 1.603 1.603 0 0 1-.548.097c-.19 0-.42-.09-.69-.269a4.78 4.78 0 0 1-.843-.738c-.291-.313-.62-.75-.985-1.313a22.537 22.537 0 0 1-1.137-1.992l-.325-.556c-.203-.358-.48-.879-.833-1.562a29.286 29.286 0 0 1-.934-1.984 1.274 1.274 0 0 0-.487-.613l-.102-.058a1.418 1.418 0 0 0-.324-.162 2.255 2.255 0 0 0-.467-.125L1.3.96c-.569 0-.954.122-1.158.365l-.08.114C.02 1.503 0 1.606 0 1.746c0 .14.04.313.122.517a61.756 61.756 0 0 0 2.65 5.213c.954 1.674 1.783 3.022 2.487 4.043a47.826 47.826 0 0 0 2.152 2.894c.731.907 1.215 1.489 1.452 1.744.237.256.423.447.559.575l.507.46c.325.306.802.674 1.432 1.102.63.428 1.327.85 2.091 1.265.765.415 1.655.753 2.67 1.015a9.758 9.758 0 0 0 2.965.317h2.336c.473-.039.832-.18 1.076-.422l.08-.096c.055-.076.106-.195.153-.354.047-.16.07-.336.07-.527-.013-.55.031-1.044.133-1.485.1-.44.216-.773.345-.997.13-.223.275-.412.437-.565.162-.153.277-.246.345-.278.068-.032.122-.054.162-.067.325-.102.707-.003 1.148.297.44.3.853.671 1.239 1.112.386.441.85.936 1.39 1.485.542.55 1.016.958 1.422 1.227l.406.23c.27.153.623.294 1.056.421.433.128.811.16 1.137.096l5.198-.076c.514 0 .914-.08 1.198-.24.284-.16.453-.336.508-.527.054-.192.057-.41.01-.652a2.305 2.305 0 0 0-.143-.508z" fill="#E4E4E4"/></symbol><symbol id="icon-wp" viewBox="0 0 24 24"><path d="M.057 24l1.687-6.163a11.867 11.867 0 0 1-1.587-5.946C.16 5.335 5.495 0 12.05 0a11.817 11.817 0 0 1 8.413 3.488 11.824 11.824 0 0 1 3.48 8.414c-.003 6.557-5.338 11.892-11.893 11.892a11.9 11.9 0 0 1-5.688-1.448L.057 24zm6.597-3.807c1.676.995 3.276 1.591 5.392 1.592 5.448 0 9.886-4.434 9.889-9.885.002-5.462-4.415-9.89-9.881-9.892-5.452 0-9.887 4.434-9.889 9.884-.001 2.225.651 3.891 1.746 5.634l-.999 3.648 3.742-.981zm11.387-5.464c-.074-.124-.272-.198-.57-.347-.297-.149-1.758-.868-2.031-.967-.272-.099-.47-.149-.669.149-.198.297-.768.967-.941 1.165-.173.198-.347.223-.644.074-.297-.149-1.255-.462-2.39-1.475-.883-.788-1.48-1.761-1.653-2.059-.173-.297-.018-.458.13-.606.134-.133.297-.347.446-.521.151-.172.2-.296.3-.495.099-.198.05-.372-.025-.521-.075-.148-.669-1.611-.916-2.206-.242-.579-.487-.501-.669-.51l-.57-.01c-.198 0-.52.074-.792.372s-1.04 1.016-1.04 2.479 1.065 2.876 1.213 3.074c.149.198 2.095 3.2 5.076 4.487.709.306 1.263.489 1.694.626.712.226 1.36.194 1.872.118.571-.085 1.758-.719 2.006-1.413.248-.695.248-1.29.173-1.414z" fill="#E4E4E4"/></symbol></svg>