<svg xmlns="http://www.w3.org/2000/svg" width="28" height="30" fill="none">
  <path fill-rule="evenodd" clip-rule="evenodd"
        d="M3.782.772a2.5 2.5 0 013.762.17L11.66 6.11a2.5 2.5 0 01-.459 3.56l-2.073 1.55c-.487.363-.664.941-.456 1.43.447 1.057 1.316 2.69 2.879 4.325 1.654 1.73 3.574 2.927 4.79 3.585.51.275 1.15.16 1.583-.292l1.702-1.78a2.5 2.5 0 013.614 0l4.062 4.248a2.5 2.5 0 010 3.455l-2.613 2.733c-.647.677-1.627.945-2.53.626-2.717-.956-9.669-3.716-14.063-8.312C3.635 16.57.984 9.147.111 6.407a2.403 2.403 0 01.572-2.393L3.782.772zm2.98.793a1.5 1.5 0 00-2.257-.102l-3.1 3.242a1.403 1.403 0 00-.34 1.398c.87 2.734 3.466 9.958 7.754 14.443 4.217 4.41 10.968 7.108 13.671 8.06.513.18 1.085.036 1.476-.373l2.613-2.734a1.5 1.5 0 000-2.073l-4.062-4.249a1.5 1.5 0 00-2.168 0l-1.702 1.78c-.712.745-1.835.993-2.781.481-1.266-.683-3.285-1.939-5.038-3.773A15.538 15.538 0 017.75 13.04c-.416-.981-.015-2.03.778-2.623l2.074-1.549a1.5 1.5 0 00.275-2.136L6.762 1.565zm10.073 2.183a.5.5 0 01.5-.5v0h.05l.123.005a10.596 10.596 0 011.909.277c1.156.28 2.626.847 3.743 2.016 1.115 1.166 1.655 2.697 1.92 3.898a11.962 11.962 0 01.263 1.984c.003.055.004.097.004.127v.049l-.5.001h.5a.5.5 0 01-1 0v-.031l-.003-.107a10.98 10.98 0 00-.24-1.808c-.248-1.12-.733-2.446-1.666-3.422-.932-.975-2.193-1.478-3.256-1.735a9.595 9.595 0 00-1.717-.25 4.549 4.549 0 00-.1-.003H17.334m-.5-.5a.5.5 0 00.5.5l-.5-.5z"
        fill="#999"></path>
</svg>
