<svg width="28" height="28" viewBox="0 0 28 28" fill="none" xmlns="http://www.w3.org/2000/svg">
<path d="M15.3707 0.666504C16.8707 0.670504 17.632 0.678504 18.2894 0.697171L18.548 0.706504C18.8467 0.717171 19.1414 0.730504 19.4974 0.746504C20.916 0.813171 21.884 1.03717 22.7334 1.3665C23.6134 1.70517 24.3547 2.16384 25.096 2.90384C25.7743 3.57015 26.299 4.37647 26.6334 5.2665C26.9627 6.11584 27.1867 7.08384 27.2534 8.50384C27.2694 8.8585 27.2827 9.15317 27.2934 9.45317L27.3014 9.71184C27.3214 10.3678 27.3294 11.1292 27.332 12.6292L27.3334 13.6238V15.3705C27.3366 16.343 27.3264 17.3156 27.3027 18.2878L27.2947 18.5465C27.284 18.8465 27.2707 19.1412 27.2547 19.4958C27.188 20.9158 26.9614 21.8825 26.6334 22.7332C26.299 23.6232 25.7743 24.4295 25.096 25.0958C24.4297 25.7741 23.6234 26.2987 22.7334 26.6332C21.884 26.9625 20.916 27.1865 19.4974 27.2532L18.548 27.2932L18.2894 27.3012C17.632 27.3198 16.8707 27.3292 15.3707 27.3318L14.376 27.3332H12.6307C11.6577 27.3366 10.6847 27.3264 9.71205 27.3025L9.45338 27.2945C9.13686 27.2825 8.82041 27.2687 8.50405 27.2532C7.08538 27.1865 6.11738 26.9625 5.26671 26.6332C4.37715 26.2986 3.5713 25.7739 2.90538 25.0958C2.22664 24.4297 1.70152 23.6233 1.36671 22.7332C1.03738 21.8838 0.81338 20.9158 0.746713 19.4958L0.706713 18.5465L0.700046 18.2878C0.675468 17.3156 0.664356 16.3431 0.666713 15.3705V12.6292C0.663022 11.6566 0.672801 10.6841 0.696046 9.71184L0.70538 9.45317C0.716046 9.15317 0.72938 8.8585 0.74538 8.50384C0.812046 7.08384 1.03605 6.11717 1.36538 5.2665C1.70097 4.3761 2.22701 3.56975 2.90671 2.90384C3.57225 2.2259 4.37763 1.70127 5.26671 1.3665C6.11738 1.03717 7.08405 0.813171 8.50405 0.746504C8.85871 0.730504 9.15471 0.717171 9.45338 0.706504L9.71205 0.698504C10.6843 0.674814 11.6568 0.664591 12.6294 0.667837L15.3707 0.666504ZM14 7.33317C12.2319 7.33317 10.5362 8.03555 9.286 9.28579C8.03576 10.536 7.33338 12.2317 7.33338 13.9998C7.33338 15.7679 8.03576 17.4636 9.286 18.7139C10.5362 19.9641 12.2319 20.6665 14 20.6665C15.7682 20.6665 17.4638 19.9641 18.7141 18.7139C19.9643 17.4636 20.6667 15.7679 20.6667 13.9998C20.6667 12.2317 19.9643 10.536 18.7141 9.28579C17.4638 8.03555 15.7682 7.33317 14 7.33317ZM14 9.99984C14.5253 9.99975 15.0455 10.1031 15.5308 10.3041C16.0162 10.505 16.4572 10.7996 16.8287 11.1709C17.2002 11.5423 17.4949 11.9832 17.696 12.4685C17.8971 12.9538 18.0006 13.4739 18.0007 13.9992C18.0008 14.5245 17.8974 15.0446 17.6965 15.53C17.4955 16.0153 17.201 16.4563 16.8296 16.8278C16.4582 17.1993 16.0173 17.494 15.5321 17.6951C15.0468 17.8962 14.5267 17.9998 14.0014 17.9998C12.9405 17.9998 11.9231 17.5784 11.173 16.8283C10.4228 16.0781 10.0014 15.0607 10.0014 13.9998C10.0014 12.939 10.4228 11.9216 11.173 11.1714C11.9231 10.4213 12.9405 9.99984 14.0014 9.99984M21.0014 5.33317C20.5594 5.33317 20.1354 5.50877 19.8229 5.82133C19.5103 6.13389 19.3347 6.55781 19.3347 6.99984C19.3347 7.44186 19.5103 7.86579 19.8229 8.17835C20.1354 8.49091 20.5594 8.6665 21.0014 8.6665C21.4434 8.6665 21.8673 8.49091 22.1799 8.17835C22.4925 7.86579 22.668 7.44186 22.668 6.99984C22.668 6.55781 22.4925 6.13389 22.1799 5.82133C21.8673 5.50877 21.4434 5.33317 21.0014 5.33317Z" fill="#1E1E1E"/>
</svg>
