<svg width="16" height="16" viewBox="0 0 16 16" fill="none" xmlns="http://www.w3.org/2000/svg">
<path d="M2 6.00016C2 5.82335 2.07024 5.65378 2.19526 5.52876C2.32029 5.40373 2.48986 5.3335 2.66667 5.3335H13.3333C13.5101 5.3335 13.6797 5.40373 13.8047 5.52876C13.9298 5.65378 14 5.82335 14 6.00016V7.3335C14 7.51031 13.9298 7.67988 13.8047 7.8049C13.6797 7.92992 13.5101 8.00016 13.3333 8.00016H2.66667C2.48986 8.00016 2.32029 7.92992 2.19526 7.8049C2.07024 7.67988 2 7.51031 2 7.3335V6.00016Z" stroke="#1E1E1E" stroke-width="1.2" stroke-linecap="round" stroke-linejoin="round"/>
<path d="M8 5.3335V14.0002" stroke="#1E1E1E" stroke-width="1.2" stroke-linecap="round" stroke-linejoin="round"/>
<path d="M12.6666 8V12C12.6666 13.1046 11.7712 14 10.6666 14C8.88887 14 7.11109 14 5.33331 14C4.22874 14 3.33331 13.1046 3.33331 12V8" stroke="#1E1E1E" stroke-width="1.2" stroke-linecap="round" stroke-linejoin="round"/>
<path d="M4.99998 5.33314C4.55795 5.33314 4.13403 5.15754 3.82147 4.84498C3.50891 4.53242 3.33331 4.1085 3.33331 3.66647C3.33331 3.22444 3.50891 2.80052 3.82147 2.48796C4.13403 2.1754 4.55795 1.9998 4.99998 1.9998C5.6431 1.9886 6.27333 2.30064 6.80847 2.89524C7.34361 3.48984 7.75883 4.33941 7.99998 5.33314C8.24113 4.33941 8.65635 3.48984 9.19149 2.89524C9.72663 2.30064 10.3569 1.9886 11 1.9998C11.442 1.9998 11.8659 2.1754 12.1785 2.48796C12.4911 2.80052 12.6666 3.22444 12.6666 3.66647C12.6666 4.1085 12.4911 4.53242 12.1785 4.84498C11.8659 5.15754 11.442 5.33314 11 5.33314" stroke="#1E1E1E" stroke-width="1.2" stroke-linecap="round" stroke-linejoin="round"/>
</svg>
