<svg width="39" height="21" viewBox="0 0 39 21" fill="none" xmlns="http://www.w3.org/2000/svg">
<path id="vk copy 3" fill-rule="evenodd" clip-rule="evenodd" d="M38.7932 18.9653C38.7459 18.8693 38.7019 18.7896 38.661 18.7257C37.9844 17.5756 36.6913 16.1639 34.7826 14.4902L34.7423 14.4519L34.7221 14.4331L34.7017 14.4138H34.6812C33.815 13.6345 33.2664 13.1105 33.0367 12.8422C32.6164 12.3311 32.5222 11.8138 32.7519 11.2896C32.9142 10.8936 33.5239 10.0573 34.5794 8.77947C35.1347 8.10227 35.5744 7.55953 35.8992 7.15062C38.2413 4.21202 39.2567 2.33421 38.9452 1.51646L38.8242 1.32537C38.7429 1.21032 38.5331 1.10507 38.195 1.00909C37.8562 0.913304 37.4232 0.897463 36.8951 0.961296L31.0472 0.999422C30.9525 0.96774 30.8172 0.970694 30.641 1.00909C30.4649 1.04748 30.3769 1.06675 30.3769 1.06675L30.2751 1.11474L30.1943 1.1724C30.1266 1.21052 30.0521 1.27758 29.9709 1.37343C29.89 1.46894 29.8224 1.58103 29.7683 1.70877C29.1316 3.25465 28.4078 4.69194 27.5953 6.02055C27.0944 6.81279 26.6344 7.49939 26.2143 8.08073C25.7948 8.66187 25.4428 9.09004 25.1587 9.3645C24.8742 9.63924 24.6175 9.85933 24.3869 10.0256C24.1567 10.1919 23.981 10.2622 23.8593 10.2365C23.7373 10.2108 23.6224 10.1853 23.5137 10.1598C23.3243 10.0447 23.1719 9.88826 23.0571 9.69025C22.9417 9.49224 22.8641 9.24301 22.8235 8.94278C22.7831 8.64234 22.7592 8.38392 22.7523 8.16665C22.746 7.94964 22.7489 7.64269 22.7626 7.24667C22.7767 6.85045 22.7831 6.58236 22.7831 6.44181C22.7831 5.95625 22.7931 5.42927 22.8132 4.86075C22.8337 4.29223 22.8503 3.84177 22.8641 3.50992C22.8779 3.17773 22.8843 2.82628 22.8843 2.45577C22.8843 2.08525 22.8604 1.79468 22.8132 1.58379C22.7666 1.37316 22.6949 1.1687 22.6006 0.970492C22.5056 0.772482 22.3666 0.61931 22.1843 0.510572C22.0016 0.401969 21.7744 0.315784 21.5041 0.251749C20.7865 0.0985099 19.8728 0.0156142 18.7626 0.00272675C16.2448 -0.0227796 14.627 0.130661 13.9095 0.462848C13.6253 0.6032 13.368 0.794968 13.138 1.03755C12.8943 1.31872 12.8603 1.47216 13.0362 1.4974C13.8486 1.61225 14.4237 1.88698 14.7621 2.32132L14.8841 2.55148C14.979 2.71754 15.0737 3.01154 15.1685 3.43307C15.2632 3.85459 15.3243 4.32089 15.3512 4.83169C15.4187 5.76448 15.4187 6.56297 15.3512 7.22721C15.2834 7.89171 15.2194 8.40902 15.1583 8.77954C15.0972 9.15005 15.0059 9.45029 14.8841 9.68018C14.7621 9.91014 14.681 10.0507 14.6403 10.1017C14.5997 10.1527 14.5658 10.1849 14.539 10.1975C14.363 10.2611 14.18 10.2935 13.9906 10.2935C13.8009 10.2935 13.5709 10.204 13.3002 10.0251C13.0296 9.84611 12.7488 9.6003 12.4577 9.28725C12.1666 8.97412 11.8383 8.53655 11.4726 7.97447C11.1073 7.4124 10.7282 6.74809 10.3356 5.98155L10.0108 5.42565C9.80776 5.06802 9.53039 4.54729 9.17841 3.86392C8.82622 3.18028 8.51492 2.519 8.24431 1.8802C8.13613 1.61191 7.97362 1.40766 7.75705 1.2671L7.65542 1.20945C7.58786 1.15843 7.4794 1.10427 7.33061 1.04654C7.18161 0.988884 7.02614 0.947536 6.86356 0.922097L1.29981 0.960223C0.731269 0.960223 0.345507 1.08178 0.142385 1.32456L0.0610932 1.43941C0.0204829 1.50337 0 1.60553 0 1.74615C0 1.88671 0.0406102 2.05921 0.121902 2.26346C0.934107 4.06502 1.81736 5.80247 2.77167 7.47609C3.72597 9.14971 4.55525 10.4979 5.25899 11.5193C5.96288 12.5415 6.68035 13.5063 7.4114 14.4131C8.14246 15.3202 8.62637 15.9016 8.86313 16.157C9.10018 16.4129 9.28638 16.6042 9.42172 16.7319L9.92945 17.1917C10.2543 17.4984 10.7314 17.8657 11.3609 18.2936C11.9905 18.7218 12.6876 19.1433 13.4524 19.5589C14.2174 19.9737 15.1074 20.3123 16.1228 20.5742C17.138 20.8363 18.1262 20.9414 19.0874 20.8907H21.4226C21.8962 20.8521 22.255 20.7116 22.4989 20.469L22.5797 20.3729C22.634 20.2967 22.6848 20.1782 22.7318 20.0188C22.7793 19.8591 22.8029 19.6832 22.8029 19.4918C22.789 18.9426 22.8333 18.4475 22.9346 18.0068C23.0358 17.5662 23.1512 17.234 23.2802 17.0103C23.4091 16.7868 23.5547 16.5982 23.7166 16.4453C23.8789 16.292 23.9945 16.1992 24.0624 16.1673C24.1298 16.1351 24.1836 16.1133 24.2243 16.1002C24.5491 15.998 24.9315 16.097 25.3719 16.3975C25.8119 16.6977 26.2246 17.0684 26.6107 17.509C26.9965 17.95 27.4601 18.4448 28.0014 18.994C28.5432 19.5435 29.0168 19.9519 29.4228 20.2206L29.8288 20.4506C30.0999 20.604 30.4518 20.7446 30.8851 20.8723C31.3176 21 31.6965 21.0319 32.0219 20.9681L37.22 20.8916C37.7341 20.8916 38.1342 20.8112 38.4179 20.6518C38.7023 20.4921 38.8712 20.3162 38.9257 20.1248C38.98 19.9333 38.9829 19.7159 38.936 19.4729C38.8878 19.2306 38.8404 19.0611 38.7932 18.9653Z" fill="#E4E4E4"/>
</svg>
