<?xml version="1.0" standalone="no"?>
<!DOCTYPE svg PUBLIC "-//W3C//DTD SVG 20010904//EN"
 "http://www.w3.org/TR/2001/REC-SVG-20010904/DTD/svg10.dtd">
<svg version="1.0" xmlns="http://www.w3.org/2000/svg"
 width="700.000000pt" height="700.000000pt" viewBox="0 0 700.000000 700.000000"
 preserveAspectRatio="xMidYMid meet">
<metadata>
Created by potrace 1.14, written by Peter Selinger 2001-2017
</metadata>
<g transform="translate(0.000000,700.000000) scale(0.100000,-0.100000)"
fill="#000000" stroke="none">
<path d="M3486 6948 c-6 -33 -12 -61 -20 -95 -2 -10 -14 -61 -26 -113 -24
-103 -30 -128 -91 -360 -22 -85 -42 -162 -44 -170 -7 -32 -105 -349 -133 -435
-74 -221 -161 -431 -247 -600 -69 -135 -178 -319 -220 -370 -11 -13 -36 -46
-55 -72 -67 -91 -188 -217 -305 -319 -287 -250 -728 -469 -1272 -634 -76 -23
-149 -46 -163 -50 -36 -13 -178 -51 -208 -56 -14 -3 -29 -7 -34 -10 -8 -5
-255 -69 -308 -80 -14 -3 -52 -12 -85 -21 -33 -9 -67 -17 -75 -18 -84 -10
-205 -53 -157 -56 17 -1 35 -5 85 -18 39 -11 176 -43 242 -57 14 -3 59 -15
100 -26 41 -11 93 -24 115 -29 74 -15 461 -128 616 -180 1182 -394 1662 -909
2048 -2199 62 -206 137 -492 201 -765 21 -87 27 -113 35 -145 2 -8 4 -26 5
-40 0 -20 3 -22 10 -10 8 14 33 111 44 172 2 13 9 41 15 63 6 22 25 98 42 170
16 72 34 144 39 160 5 17 16 55 24 85 188 695 355 1110 582 1451 79 119 69
106 160 214 74 88 194 207 264 264 25 20 47 38 50 42 17 18 190 136 270 184
395 235 1022 451 1860 640 139 31 150 37 90 50 -25 5 -95 22 -200 47 -69 16
-132 31 -140 33 -147 32 -550 144 -740 206 -642 210 -1028 423 -1343 743 -43
43 -94 99 -115 125 -20 25 -45 55 -55 66 -25 28 -158 228 -202 305 -157 274
-328 720 -456 1195 -38 141 -88 334 -93 360 -2 11 -9 40 -16 65 -7 25 -14 52
-15 60 -25 121 -57 245 -65 253 -4 5 -10 -6 -14 -25z"/>
</g>
</svg>
