<svg width="242" height="342" viewBox="0 0 242 342" fill="none" xmlns="http://www.w3.org/2000/svg">
<path d="M38.1389 256.828C40.5508 270.977 49.3578 289.898 73.4289 288.951C97.5 288.003 103.239 265.5 102.582 245.738C101.924 225.975 85.7037 197.171 85.7037 182.257C85.7037 167.342 106.8 130.248 108.718 118.011C110.636 105.774 102.088 95.4482 103.239 92.3889C104.389 89.3295 108.718 89.712 108.718 79.0044C108.718 68.2967 100.664 53 87.6216 53C74.5797 53 75.7304 66.3846 73.4289 66.3846C71.1274 66.3846 66.9079 62.5604 62.6884 64.4725C58.469 66.3846 60.0033 74.0329 58.469 74.7977C56.9346 75.5625 51.5644 70.2087 47.345 72.5032C43.1255 74.7977 44.2763 83.2109 41.2076 84.3581C38.1388 85.5054 33.5358 82.446 29.3163 87.4174C25.0969 92.3889 28.4179 99.4703 26.5 101C24.5821 102.53 20 105.773 20 110.362C20 114.951 24.3297 119.923 24.3297 123.747C24.3297 127.571 21.261 153.958 23.1789 164.283C25.0969 174.608 34.303 198.701 36.9881 213.232C39.6732 227.764 35.7269 242.678 38.1389 256.828Z" fill="#999999"/>
<path d="M203.861 256.828C201.449 270.977 192.642 289.898 168.571 288.951C144.5 288.003 138.761 265.5 139.418 245.738C140.076 225.975 156.296 197.171 156.296 182.257C156.296 167.342 135.2 130.248 133.282 118.011C131.364 105.774 139.912 95.4482 138.761 92.3889C137.611 89.3295 133.282 89.712 133.282 79.0044C133.282 68.2967 141.336 53 154.378 53C167.42 53 166.27 66.3846 168.571 66.3846C170.873 66.3846 175.092 62.5604 179.312 64.4725C183.531 66.3846 181.997 74.0329 183.531 74.7977C185.065 75.5625 190.436 70.2087 194.655 72.5032C198.875 74.7977 197.724 83.2109 200.792 84.3581C203.861 85.5054 208.464 82.446 212.684 87.4174C216.903 92.3889 213.582 99.4703 215.5 101C217.418 102.53 222 105.773 222 110.362C222 114.951 217.67 119.923 217.67 123.747C217.67 127.571 220.739 153.958 218.821 164.283C216.903 174.608 207.697 198.701 205.012 213.232C202.327 227.764 206.273 242.678 203.861 256.828Z" fill="#999999"/>
<path d="M65.8504 275.912L85.6192 64.2691L88.7453 64.5678L86.4446 55.4327L82.7725 63.997L85.6192 64.2691L65.8504 275.912L63.0389 275.643L65.0482 284.499L69.0144 276.214L65.8504 275.912Z" fill="white"/>
<path d="M86.4446 55.4327L65.0482 284.499M86.4446 55.4327L82.7725 63.997L88.7453 64.5678L86.4446 55.4327ZM65.0482 284.499L63.0389 275.643L69.0144 276.214L65.0482 284.499Z" stroke="white" stroke-linecap="round" stroke-linejoin="round"/>
<path d="M208.875 112.28L144.875 111.894V115L136 111.841L144.875 109V111.894L208.875 112.28V109.489L217.5 112.332L208.875 115.492V112.28Z" fill="white"/>
<path d="M136 111.841L217.5 112.332M136 111.841L144.875 109V115L136 111.841ZM217.5 112.332L208.875 109.489V115.492L217.5 112.332Z" stroke="white" stroke-linecap="round" stroke-linejoin="round"/>
<rect x="0.5" y="0.5" width="241" height="341" rx="1.5" stroke="#E4E4E4"/>
<path d="M180.04 100.782V102H172.998V101.048L176.988 97.198C177.474 96.7313 177.8 96.33 177.968 95.994C178.136 95.6487 178.22 95.3033 178.22 94.958C178.22 94.4447 178.038 94.048 177.674 93.768C177.32 93.4787 176.806 93.334 176.134 93.334C175.052 93.334 174.216 93.6887 173.628 94.398L172.676 93.572C173.059 93.1053 173.558 92.7413 174.174 92.48C174.8 92.2187 175.495 92.088 176.26 92.088C177.287 92.088 178.104 92.3353 178.71 92.83C179.317 93.3153 179.62 93.978 179.62 94.818C179.62 95.3407 179.508 95.8353 179.284 96.302C179.06 96.7687 178.636 97.3007 178.01 97.898L175.014 100.782H180.04Z" fill="white"/>
<path d="M63.6192 166.2V176H62.2332V167.418H60.0212V166.2H63.6192Z" fill="white"/>
<line x1="47" y1="52.5" x2="196" y2="52.5" stroke="#E4E4E4"/>
<line x1="75" y1="289.5" x2="169" y2="289.5" stroke="#E4E4E4"/>
</svg>
